HIERARCHY
ROOT Hips
{
  OFFSET -187.679 86.5976 -156.378
  CHANNELS 6 Xposition Yposition Zposition Zrotation Xrotation Yrotation
  JOINT LeftUpLeg
  {
    OFFSET 8.64259 1.95398 -2.38835
    CHANNELS 3 Zrotation Xrotation Yrotation
    JOINT LeftLeg
    {
      OFFSET 43.7702 0 0
      CHANNELS 3 Zrotation Xrotation Yrotation
      JOINT LeftFoot
      {
        OFFSET 40.6238 0 0
        CHANNELS 3 Zrotation Xrotation Yrotation
        JOINT LeftToeBase
        {
          OFFSET 12.7242 0 0
          CHANNELS 3 Zrotation Xrotation Yrotation
          End Site
          {
            OFFSET 0 0 0
          }
        }
      }
    }
  }
  JOINT RightUpLeg
  {
    OFFSET -8.2249 1.95398 -2.59336
    CHANNELS 3 Zrotation Xrotation Yrotation
    JOINT RightLeg
    {
      OFFSET 43.5653 0 0
      CHANNELS 3 Zrotation Xrotation Yrotation
      JOINT RightFoot
      {
        OFFSET 40.6238 0 0
        CHANNELS 3 Zrotation Xrotation Yrotation
        JOINT RightToeBase
        {
          OFFSET 12.7242 0 0
          CHANNELS 3 Zrotation Xrotation Yrotation
          End Site
          {
            OFFSET 0 0 0
          }
        }
      }
    }
  }
  JOINT Spine
  {
    OFFSET 0.165834 0.87714 6.61349
    CHANNELS 3 Zrotation Xrotation Yrotation
    JOINT Spine1
    {
      OFFSET 7.38963 1.71661e-005 0
      CHANNELS 3 Zrotation Xrotation Yrotation
      JOINT Spine2
      {
        OFFSET 11.9445 1.14441e-005 0
        CHANNELS 3 Zrotation Xrotation Yrotation
        JOINT Spine3
        {
          OFFSET 14.7254 4.19617e-005 0
          CHANNELS 3 Zrotation Xrotation Yrotation
          JOINT Spine4
          {
            OFFSET 10.9679 0 0
            CHANNELS 3 Zrotation Xrotation Yrotation
            JOINT RightShoulder
            {
              OFFSET 2.46616 -1.6653 3.69651
              CHANNELS 3 Zrotation Xrotation Yrotation
              JOINT RightArm
              {
                OFFSET 13.0012 0 0
                CHANNELS 3 Zrotation Xrotation Yrotation
                JOINT RightForeArm
                {
                  OFFSET 28.7848 1.52588e-005 0
                  CHANNELS 3 Zrotation Xrotation Yrotation
                  JOINT RightHand
                  {
                    OFFSET 26.5688 1.52588e-005 0
                    CHANNELS 3 Zrotation Xrotation Yrotation
                    End Site
                    {
                      OFFSET 0 0 0
                    }
                  }
                }
              }
            }
            JOINT LeftShoulder
            {
              OFFSET 2.38034 -1.29275 -3.7523
              CHANNELS 3 Zrotation Xrotation Yrotation
              JOINT LeftArm
              {
                OFFSET 16.3182 6.10352e-005 0
                CHANNELS 3 Zrotation Xrotation Yrotation
                JOINT LeftForeArm
                {
                  OFFSET 27.0901 0 0
                  CHANNELS 3 Zrotation Xrotation Yrotation
                  JOINT LeftHand
                  {
                    OFFSET 24.5451 1.52588e-005 0
                    CHANNELS 3 Zrotation Xrotation Yrotation
                    End Site
                    {
                      OFFSET 0 0 0
                    }
                  }
                }
              }
            }
            JOINT Neck
            {
              OFFSET 5.0226 -0.0266342 0
              CHANNELS 3 Zrotation Xrotation Yrotation
              JOINT Head
              {
                OFFSET 6.69363 2.86102e-005 0
                CHANNELS 3 Zrotation Xrotation Yrotation
                End Site
                {
                  OFFSET 0 0 0
                }
              }
            }
          }
        }
      }
    }
  }
}
MOTION
Frames:	9
Frame Time:	0.0416667
-377.961 93.2041 350.285 97.7905 27.241 80.4909 -165.458 -2.68575 95.1813 6.05143 34.1407 -10.7899 -54.2844 28.3273 -32.25 144.704 35.8437 -10.1326 175.771 1.43397 86.9677 -35.1676 -0.0846197 -3.95326 81.3899 -3.01081 -6.31915 25.4337 -3.87273 10.3874 8.7637 3.46914 -88.7285 20.3743 17.8075 -1.32608 8.82857 17.7313 -2.13426 -14.69 17.3557 4.25975 5.32268 17.3557 4.25975 94.715 47.7443 -45.974 104.248 13.3299 56.823 -176.498 10.4496 -151.749 -1.44855 0.255537 -42.4843 -108.186 -32.1355 42.6732 -108.773 61.9307 82.9537 1.41518 2.94239 -20.4928 -59.0502 4.90648 -13.431 -53.9464 -10.745 -43.5137 1.88373 -28.7445 -18.0272 
-378.074 93.524 350.283 97.769 27.291 80.3645 -165.873 -3.08969 94.7627 6.27213 36.5975 -10.4784 -51.9127 24.8049 -34.1311 142.911 36.0806 -8.95925 175.51 0.804203 86.7983 -33.8916 0.482903 -3.83347 82.2957 -3.59901 -7.70058 23.2231 -5.59585 13.6012 8.7908 3.54929 -88.7095 20.2077 17.8771 -1.2633 8.66311 17.8036 -2.07496 -14.862 17.403 4.34216 5.15069 17.403 4.34216 94.7821 47.0257 -44.838 104.146 12.8439 56.3644 -176.96 10.8097 -151.809 -1.27134 0.196051 -42.6052 -108.286 -31.6708 42.2001 -120.632 61.0096 93.1687 -3.02444 -3.10765 -23.849 -76.3353 12.1887 -19.6015 -53.4888 -11.0321 -43.5109 2.23507 -28.8243 -18.2209 
-378.401 94.1283 350.267 97.7038 27.4574 80.043 -167.353 -4.12502 93.2021 5.53695 41.6216 -8.22836 -46.4443 16.4576 -37.4226 137.84 36.6153 -5.58053 174.583 -0.65238 86.1608 -30.8682 1.27471 -3.30564 85.1458 -5.70776 -12.0282 18.8127 -10.4754 22.2546 8.74876 3.77324 -88.6674 19.7294 17.8353 -1.05629 8.18449 17.771 -1.86621 -15.3311 17.3013 4.52431 4.68151 17.3013 4.52431 95.0748 45.0458 -41.806 104.395 10.368 54.2646 -177.729 11.8659 -152.539 -0.648437 -0.016086 -42.9761 -108.029 -30.7172 41.9665 -176.253 27.0208 138.087 -17.4956 -69.7248 -52.1347 -111.668 11.4256 -13.5179 -52.1597 -11.4829 -43.2938 3.68084 -28.6441 -17.9023 
-378.873 94.8357 350.259 97.592 27.7685 79.6207 -169.713 -5.01914 90.6738 1.34589 46.5569 -3.48147 -39.1657 4.81753 -38.7551 129.652 36.5457 -0.704234 173.559 -2.90113 85.4722 -25.2801 3.50375 -2.78762 88.7323 -9.57658 -18.6434 18.553 -17.5725 37.9152 8.49125 4.0121 -88.781 19.1233 17.2723 -1.1341 7.57011 17.2056 -1.91691 -15.8819 16.788 4.26613 4.13075 16.788 4.26612 96.2256 41.7041 -38.7756 104.126 5.41573 50.6958 -179.328 14.4096 -153.254 0.551494 -0.443338 -44.008 -109.097 -32.8899 42.5254 -99.0731 66.9304 76.3776 -29.8786 -1.20482 -3.75847 -98.7915 33.0623 -34.5514 -51.9031 -10.3183 -40.2405 5.7896 -27.6825 -17.9789 
-379.385 95.6431 350.229 97.4236 28.2547 79.1979 -171.785 -4.3996 88.2643 -7.45364 48.3479 1.55545 -29.086 -7.85497 -34.2664 119.081 34.8401 4.12651 172.613 -5.77491 84.4344 -17.1292 6.08284 -2.33197 91.1741 -15.2726 -26.9814 28.3038 -20.855 59.9492 10.1663 5.51469 -86.0053 15.6797 22.0852 4.58841 4.20335 22.2645 3.5627 -19.5849 19.6531 11.2484 0.427724 19.6531 11.2484 101.385 30.1925 -23.9963 108.091 10.8435 47.82 178.818 9.62384 -154.26 1.28618 -0.72843 -45.3451 -88.3607 11.2381 43.6679 -16.5382 71.4219 -44.5882 -58.524 28.417 -2.00061 -67.7801 44.093 -68.7487 -29.4227 -21.7787 -77.1633 10.6772 -32.4404 1.66674 
-379.916 95.6507 350.143 97.1775 28.9454 78.8783 -173.808 -1.89784 85.9608 -20.3015 44.1957 6.34708 -12.8224 -17.9647 -23.5143 107.632 31.3117 7.24333 172.108 -4.43671 82.5507 -16.9762 10.8674 -1.59361 96.797 -20.7571 -33.2484 43.5521 -13.4861 79.3211 9.65961 5.94984 -86.2943 14.7947 20.946 4.40992 3.2975 21.1188 3.44208 -20.3553 18.6254 10.6992 -0.342607 18.6254 10.6992 106.43 22.2568 -21.3186 105.54 1.3662 40.4889 174.97 15.2989 -154.714 3.32795 -1.61654 -48.7018 -89.3106 9.10095 44.0901 4.16263 78.8767 -65.0876 -56.9257 34.1231 -11.381 -48.5641 41.685 -87.8364 -25.8469 -22.4338 -71.9998 12.7316 -29.3604 3.5588 
-380.345 96.1211 350.114 96.8207 29.8665 78.7697 -175.557 -2.31731 84.1996 -23.5453 31.2983 8.37309 4.67612 -20.8856 -13.4585 97.4964 26.3164 5.67762 172.26 -1.58502 80.2771 -20.41 17.6627 -0.873486 102.542 -23.919 -36.3543 56.0715 -0.838557 89.8342 9.02953 6.42591 -86.6598 13.8418 19.5236 4.10772 2.32068 19.6846 3.21096 -21.1797 17.3648 9.94501 -1.16704 17.3648 9.945 112.279 12.7619 -20.3785 100.378 -7.64688 31.6061 169.698 22.7735 -153.791 4.87749 -2.5208 -53.5847 -90.6285 6.09324 44.5584 -11.9316 74.8643 -49.8295 -65.4489 44.6266 -7.44734 -33.7511 34.55 -100.13 -21.1427 -22.9218 -65.1021 14.3658 -25.7365 5.32007 
-380.687 96.8 350.178 96.3005 31.0399 78.9944 -176.797 -2.04879 84.2012 -22.0352 -0.423735 7.69497 20.5786 -17.3782 -13.4856 93.4517 19.685 -9.90674 173.173 2.10755 78.038 -26.7254 26.9371 -0.188683 108.085 -23.6938 -36.2106 65.7628 11.8447 87.9498 8.26449 6.91991 -87.0975 12.8707 17.7977 3.6718 1.32336 17.9414 2.85971 -22.0122 15.8548 8.97207 -1.99953 15.8548 8.97207 117.657 2.75545 -21.342 92.5878 -14.5677 21.2993 163.381 31.4304 -150.946 4.975 -2.90543 -59.23 -91.961 2.47226 45.6761 -27.6055 61.4835 -36.109 -71.4387 83.5207 -3.35448 -26.1504 29.1339 -106.313 -15.4118 -22.7887 -56.3013 15.4678 -21.7267 6.48958 
-380.848 96.9078 350.294 95.8041 32.4222 79.3434 -177.675 -1.48699 85.2708 -17.5034 -42.244 10.7707 23.6732 -11.282 -32.5813 108.479 30.9275 5.59292 174.723 6.42542 75.9118 -36.3044 35.6934 0.519509 112.461 -20.5914 -36.269 73.7588 20.838 84.4027 7.37695 7.43406 -87.6043 11.8739 15.7948 3.09119 0.299756 15.9151 2.37546 -22.8687 14.1236 7.78106 -2.85603 14.1236 7.78106 121.513 -6.88523 -24.3561 83.5937 -19.3043 10.7059 153.643 40.3831 -144.6 3.36742 -2.33169 -64.9664 -93.3072 -2.02984 47.5001 -35.7265 39.4616 -30.9335 115.245 52.4635 -179.872 -25.2134 29.3461 -109.037 -8.74125 -21.7743 -45.603 15.8485 -17.7029 7.16556 
